<?xml version="1.0" encoding="utf-8"?>
<!-- Generator: Adobe Illustrator 24.1.1, SVG Export Plug-In . SVG Version: 6.00 Build 0)  -->
<svg version="1.1" id="Layer_1" xmlns="http://www.w3.org/2000/svg" xmlns:xlink="http://www.w3.org/1999/xlink" x="0px" y="0px"
	 viewBox="0 0 520 153" style="enable-background:new 0 0 520 153;" xml:space="preserve">
<style type="text/css">
	.st0{fill:#F15A29;}
	.st1{fill:#CD0E5C;}
	.st2{fill:#FF3950;}
	.st3{fill:#FF9243;}
	.st4{fill:#FFB76F;}
</style>
<g>
	<path class="st0" d="M122,82.7l0.4,5.4c3.4-4.2,8-6.3,13.8-6.3c6.2,0,10.4,2.4,12.7,7.3c3.4-4.9,8.2-7.3,14.4-7.3
		c5.2,0,9.1,1.5,11.6,4.5s3.8,7.6,3.8,13.7v30.7h-12.9v-30.6c0-2.7-0.5-4.7-1.6-6s-2.9-1.9-5.6-1.9c-3.8,0-6.5,1.8-8,5.5v33h-12.8
		v-30.6c0-2.8-0.5-4.8-1.6-6s-3-1.9-5.6-1.9c-3.6,0-6.3,1.5-7.9,4.5v33.9h-12.8v-48L122,82.7L122,82.7z"/>
	<path class="st0" d="M213.7,130.7c-0.6-1.2-1-2.6-1.3-4.3c-3.1,3.5-7.1,5.2-12.1,5.2c-4.7,0-8.6-1.4-11.7-4.1
		c-3.1-2.7-4.6-6.2-4.6-10.3c0-5.1,1.9-9,5.7-11.7s9.2-4.1,16.3-4.1h5.9v-2.8c0-2.2-0.6-4-1.7-5.3c-1.1-1.3-2.9-2-5.4-2
		c-2.2,0-3.9,0.5-5.1,1.6c-1.2,1-1.8,2.5-1.8,4.3H185c0-2.8,0.9-5.4,2.6-7.7c1.7-2.4,4.1-4.2,7.3-5.6c3.1-1.3,6.7-2,10.6-2
		c5.9,0,10.6,1.5,14.1,4.5s5.2,7.1,5.2,12.5v20.8c0,4.6,0.7,8,1.9,10.3v0.8L213.7,130.7L213.7,130.7z M203.1,121.8
		c1.9,0,3.6-0.4,5.2-1.3s2.8-2,3.5-3.4v-8.3H207c-6.4,0-9.8,2.2-10.2,6.7v0.8c0,1.6,0.6,2.9,1.7,3.9
		C199.6,121.3,201.1,121.8,203.1,121.8z"/>
	<path class="st0" d="M247.2,70.9v11.8h8.2v9.4h-8.2v24c0,1.8,0.3,3,1,3.8s2,1.2,3.9,1.2c1.4,0,2.7-0.1,3.8-0.3v9.7
		c-2.5,0.8-5.1,1.2-7.8,1.2c-9,0-13.6-4.5-13.8-13.6v-26h-7v-9.4h7V70.9H247.2z"/>
	<path class="st0" d="M288.6,125.8c-3.2,3.8-7.5,5.8-13.1,5.8c-5.1,0-9.1-1.5-11.8-4.4c-2.7-3-4.1-7.3-4.1-13V82.7h12.8v31
		c0,5,2.3,7.5,6.8,7.5c4.3,0,7.3-1.5,9-4.5v-34H301v48h-12.1L288.6,125.8z"/>
	<path class="st0" d="M334.9,94.7c-1.7-0.2-3.3-0.4-4.6-0.4c-4.9,0-8,1.6-9.5,4.9v31.4H308v-48h12l0.4,5.7c2.6-4.4,6.1-6.6,10.7-6.6
		c1.4,0,2.8,0.2,4,0.6L334.9,94.7z"/>
	<path class="st0" d="M357.1,112.5l8.9-29.9h13.8l-19.3,55.5l-1.1,2.5c-2.9,6.3-7.6,9.4-14.2,9.4c-1.9,0-3.8-0.3-5.7-0.8v-9.7h2
		c2.4,0,4.2-0.4,5.4-1.1c1.2-0.7,2.1-2,2.8-3.7l1.5-3.9l-16.8-48.1h13.8L357.1,112.5z"/>
	<path class="st0" d="M397.4,70.9v11.8h8.2v9.4h-8.2v24c0,1.8,0.3,3,1,3.8s2,1.2,3.9,1.2c1.4,0,2.7-0.1,3.8-0.3v9.7
		c-2.5,0.8-5.1,1.2-7.8,1.2c-9,0-13.6-4.5-13.8-13.6v-26h-7v-9.4h7V70.9H397.4z"/>
	<path class="st0" d="M409.9,70.3c0-1.9,0.6-3.5,1.9-4.7s3-1.9,5.3-1.9c2.2,0,3.9,0.6,5.2,1.9c1.3,1.2,2,2.8,2,4.7
		c0,2-0.7,3.5-2,4.8c-1.3,1.2-3.1,1.9-5.2,1.9c-2.2,0-3.9-0.6-5.2-1.9C410.6,73.8,409.9,72.2,409.9,70.3z M423.5,130.7h-12.9v-48
		h12.9V130.7z"/>
	<path class="st0" d="M451.3,121.2c2.4,0,4.3-0.6,5.8-2c1.5-1.3,2.2-3,2.3-5.2h12c0,3.3-0.9,6.2-2.7,8.9c-1.7,2.7-4.1,4.8-7.2,6.3
		c-3,1.5-6.4,2.2-10,2.2c-6.9,0-12.3-2.2-16.2-6.5c-4-4.4-5.9-10.4-5.9-18.1V106c0-7.4,2-13.3,5.9-17.7s9.3-6.6,16.2-6.6
		c6,0,10.8,1.7,14.4,5.1s5.5,8,5.5,13.6h-12c-0.1-2.5-0.8-4.5-2.3-6.1s-3.4-2.3-5.9-2.3c-3,0-5.2,1.1-6.8,3.3
		c-1.5,2.2-2.3,5.7-2.3,10.6v1.3c0,4.9,0.8,8.5,2.3,10.7C445.9,120.2,448.2,121.2,451.3,121.2z"/>
	<path class="st0" d="M502,117.4c0-1.6-0.8-2.8-2.3-3.7c-1.6-0.9-4-1.7-7.5-2.4c-11.4-2.4-17.1-7.2-17.1-14.6
		c0-4.3,1.8-7.8,5.3-10.7c3.5-2.9,8.2-4.3,13.9-4.3c6.1,0,11,1.4,14.6,4.3c3.7,2.9,5.5,6.6,5.5,11.2h-12.8c0-1.8-0.6-3.3-1.8-4.5
		c-1.2-1.2-3-1.8-5.5-1.8c-2.2,0-3.8,0.5-5,1.5s-1.8,2.2-1.8,3.7c0,1.4,0.7,2.6,2,3.4s3.6,1.6,6.8,2.3c3.2,0.6,5.9,1.4,8.1,2.2
		c6.8,2.5,10.2,6.8,10.2,12.9c0,4.4-1.9,7.9-5.6,10.6c-3.8,2.7-8.6,4.1-14.6,4.1c-4,0-7.6-0.7-10.7-2.2c-3.1-1.4-5.6-3.4-7.3-5.9
		c-1.8-2.5-2.7-5.2-2.7-8.1h12.2c0.1,2.3,1,4,2.5,5.2c1.6,1.2,3.7,1.8,6.3,1.8c2.5,0,4.3-0.5,5.6-1.4
		C501.4,120.2,502,118.9,502,117.4z"/>
</g>
<g>
	<path class="st1" d="M44.8,87.3l-36-39c-1.3-1.4-2.4-2-2.4-1.3l0.1,40.9c0,0.7,1.1,2.4,2.4,3.8l35.9,38.2c1.3,1.4,2.3,1.9,2.3,1.2
		V91C47.1,90.3,46.1,88.6,44.8,87.3z"/>
	<path class="st2" d="M44,46.2H8.7c-1.3,0-1.8,0.6-1.1,1.3l38.1,41c0.7,0.7,2.3,1.3,3.6,1.3h36.3c1.3,0,1.8-0.6,1.1-1.3l-39.1-41
		C46.9,46.8,45.3,46.2,44,46.2z"/>
	<path class="st3" d="M85.6,45.2l-36-39c-1.3-1.4-2.4-2-2.4-1.3l0.1,40.9c0,0.7,1.1,2.4,2.4,3.8l35.9,38.2c1.3,1.4,2.3,1.9,2.3,1.2
		V48.9C87.9,48.3,86.8,46.6,85.6,45.2z"/>
	<path class="st4" d="M84.8,4.1H49.5c-1.3,0-1.8,0.6-1.1,1.3l38.1,41c0.7,0.7,2.3,1.3,3.6,1.3h36.3c1.3,0,1.8-0.6,1.1-1.3l-39.2-41
		C87.7,4.7,86.1,4.1,84.8,4.1z"/>
</g>
</svg>
