<?xml version="1.0" encoding="utf-8"?>
<!-- Generator: Adobe Illustrator 24.1.1, SVG Export Plug-In . SVG Version: 6.00 Build 0)  -->
<svg version="1.1" id="Layer_1" xmlns="http://www.w3.org/2000/svg" xmlns:xlink="http://www.w3.org/1999/xlink" x="0px" y="0px"
	 viewBox="0 0 283.5 59.5" style="enable-background:new 0 0 283.5 59.5;" xml:space="preserve">
<style type="text/css">
	.st0{fill:#7454A2;}
	.st1{fill:#5D52A2;}
	.st2{fill:#071F25;}
	.st3{fill:#AAD272;}
	.st4{fill:url(#SVGID_1_);}
	.st5{fill:none;}
	.st6{fill:url(#SVGID_2_);}
</style>
<g>
	<g>
		<path class="st0" d="M84.5,44.6c-3.2,0-6-0.7-8.3-2c-2.3-1.3-4.1-3.2-5.3-5.5c-1.2-2.4-1.9-5.1-1.9-8.3c0-3.2,0.6-5.9,1.9-8.3
			c1.2-2.4,3-4.2,5.3-5.5c2.3-1.3,5.1-2,8.3-2c3.2,0,6,0.7,8.3,2c2.3,1.3,4.1,3.2,5.3,5.5c1.2,2.4,1.8,5.1,1.8,8.3
			c0,3.1-0.6,5.9-1.8,8.3c-1.2,2.4-3,4.2-5.3,5.5C90.4,43.9,87.7,44.6,84.5,44.6z M84.5,37.2c1.2,0,2.3-0.4,3.1-1.1
			c0.8-0.7,1.5-1.7,1.9-3c0.4-1.3,0.6-2.8,0.6-4.5s-0.2-3.2-0.6-4.5c-0.4-1.3-1.1-2.3-1.9-3c-0.8-0.7-1.9-1-3.1-1s-2.3,0.3-3.1,1
			c-0.8,0.7-1.5,1.7-1.9,3c-0.4,1.3-0.6,2.8-0.6,4.5s0.2,3.2,0.6,4.5c0.4,1.3,1.1,2.3,1.9,3C82.2,36.9,83.3,37.2,84.5,37.2z"/>
		<path class="st0" d="M119.5,44.4c-1.6,0-2.9-0.3-4-0.8s-2.1-1.2-2.8-2c-0.8-0.8-1.3-1.7-1.7-2.6h-0.3v5h-9.5V3.1h9.6v15.5h0.2
			c0.4-0.9,0.9-1.8,1.7-2.7c0.7-0.9,1.7-1.6,2.8-2.1c1.1-0.6,2.5-0.8,4.2-0.8c2.2,0,4.2,0.6,6,1.7c1.9,1.1,3.4,2.9,4.5,5.2
			c1.1,2.3,1.7,5.3,1.7,8.9c0,3.5-0.5,6.4-1.6,8.7c-1.1,2.3-2.6,4.1-4.4,5.3S121.8,44.4,119.5,44.4z M116.3,37c1.2,0,2.3-0.3,3.1-1
			c0.9-0.7,1.5-1.7,1.9-2.9c0.4-1.3,0.7-2.7,0.7-4.3c0-1.7-0.2-3.1-0.7-4.3c-0.4-1.2-1.1-2.2-1.9-2.9c-0.8-0.7-1.9-1-3.1-1
			c-1.2,0-2.3,0.3-3.1,1c-0.9,0.7-1.5,1.6-2,2.9c-0.5,1.2-0.7,2.7-0.7,4.4c0,1.7,0.2,3.1,0.7,4.4s1.1,2.2,2,2.9
			C114,36.6,115.1,37,116.3,37z"/>
		<path class="st0" d="M145.9,44.6c-2.6,0-4.9-0.4-6.9-1.1s-3.7-1.8-4.9-3.2c-1.3-1.4-2.1-3.1-2.4-5l8.9-1.4c0.4,1.3,1,2.3,1.9,3
			c0.9,0.7,2.2,1,3.8,1c1.3,0,2.4-0.2,3.2-0.7c0.8-0.5,1.2-1.1,1.2-1.9c0-0.7-0.3-1.3-0.9-1.7c-0.6-0.4-1.6-0.8-2.8-1l-5.4-1
			c-3-0.6-5.3-1.6-6.8-3.1s-2.3-3.4-2.3-5.8c0-2,0.6-3.8,1.7-5.2c1.1-1.4,2.7-2.6,4.7-3.3c2-0.8,4.4-1.2,7.1-1.2
			c2.6,0,4.8,0.3,6.7,1c1.9,0.7,3.4,1.7,4.6,2.9c1.2,1.3,1.9,2.8,2.3,4.5l-8.5,1.3c-0.3-1-0.8-1.8-1.7-2.4c-0.9-0.6-1.9-0.9-3.2-0.9
			c-1.2,0-2.1,0.2-2.9,0.7c-0.8,0.5-1.2,1.1-1.2,1.9c0,0.6,0.2,1.2,0.7,1.6c0.5,0.5,1.4,0.8,2.7,1.1l5.9,1.1c3,0.6,5.3,1.6,6.8,2.9
			c1.5,1.4,2.2,3.1,2.2,5.4c0,2.1-0.6,3.9-1.9,5.5c-1.2,1.6-2.9,2.8-5.1,3.6C151.2,44.2,148.7,44.6,145.9,44.6z"/>
		<path class="st0" d="M175.6,44.6c-3.2,0-6-0.6-8.3-1.9s-4.1-3.1-5.3-5.4c-1.2-2.4-1.9-5.2-1.9-8.5c0-3.1,0.6-5.9,1.9-8.3
			c1.2-2.4,3-4.2,5.3-5.6c2.3-1.3,4.9-2,8-2c2.2,0,4.1,0.3,5.9,1c1.8,0.7,3.4,1.7,4.7,3c1.3,1.3,2.4,3,3.1,4.9
			c0.7,1.9,1.1,4.2,1.1,6.7V31h-26.5v-5.6h22l-4.5,1.3c0-1.4-0.2-2.7-0.6-3.7s-1.1-1.8-1.9-2.4c-0.8-0.5-1.9-0.8-3.1-0.8
			s-2.3,0.3-3.2,0.8c-0.9,0.6-1.5,1.3-2,2.3s-0.7,2.2-0.7,3.5v4c0,1.6,0.3,2.9,0.8,3.9c0.5,1.1,1.2,1.8,2.2,2.4
			c0.9,0.5,2,0.8,3.3,0.8c0.9,0,1.6-0.1,2.3-0.4c0.7-0.2,1.3-0.6,1.8-1.1s0.9-1.1,1.1-1.7l8.5,1.4c-0.5,1.8-1.4,3.3-2.6,4.6
			c-1.3,1.3-2.8,2.3-4.7,3C180.3,44.2,178.1,44.6,175.6,44.6z"/>
		<path class="st0" d="M191.1,44V13.3h9.3v5.6h0.3c0.5-2,1.5-3.5,2.7-4.5s2.7-1.5,4.4-1.5c0.4,0,0.9,0,1.4,0.1
			c0.5,0.1,0.9,0.1,1.3,0.2v8.3c-0.5-0.2-1.1-0.3-1.8-0.4s-1.4-0.1-2-0.1c-1.2,0-2.2,0.3-3.2,0.8c-0.9,0.5-1.7,1.2-2.2,2.2
			c-0.5,0.9-0.8,2-0.8,3.2V44H191.1z"/>
		<path class="st0" d="M216.1,9.7c-1.4,0-2.5-0.5-3.5-1.4c-1-0.9-1.5-2-1.5-3.3c0-1.3,0.5-2.4,1.5-3.3c1-0.9,2.1-1.3,3.5-1.3
			c1.4,0,2.5,0.4,3.5,1.3c1,0.9,1.5,2,1.5,3.3c0,1.3-0.5,2.3-1.5,3.2C218.7,9.3,217.5,9.7,216.1,9.7z M211.3,44V13.3h9.6V44H211.3z"
			/>
		<path class="st0" d="M231.9,44.5c-2,0-3.7-0.3-5.2-1c-1.5-0.7-2.7-1.7-3.6-3c-0.9-1.3-1.3-3-1.3-5c0-1.7,0.3-3.1,0.9-4.3
			s1.4-2.1,2.5-2.9c1.1-0.7,2.3-1.3,3.6-1.7c1.4-0.4,2.8-0.6,4.4-0.8c1.7-0.1,3.1-0.3,4.2-0.5c1.1-0.2,1.8-0.4,2.3-0.8
			s0.7-0.8,0.7-1.5v-0.1c0-0.7-0.2-1.3-0.5-1.8s-0.8-0.9-1.4-1.1c-0.6-0.3-1.4-0.4-2.3-0.4c-0.9,0-1.7,0.1-2.3,0.4
			c-0.7,0.3-1.2,0.6-1.7,1.1c-0.4,0.5-0.8,1-0.9,1.7l-8.7-1.1c0.4-1.8,1.2-3.3,2.4-4.6c1.2-1.3,2.7-2.4,4.6-3.1
			c1.9-0.7,4.1-1.1,6.7-1.1c1.9,0,3.7,0.2,5.3,0.7c1.7,0.4,3.1,1.1,4.3,2s2.2,1.9,2.9,3.2c0.7,1.3,1,2.7,1,4.4V44h-9v-4.3h-0.2
			c-0.5,1.1-1.2,1.9-2.1,2.7s-1.8,1.3-3,1.6S233.3,44.5,231.9,44.5z M234.8,38.2c1.1,0,2.1-0.2,2.9-0.7c0.9-0.4,1.6-1,2.1-1.8
			c0.5-0.8,0.8-1.7,0.8-2.7v-2.9c-0.3,0.1-0.6,0.3-1,0.4c-0.4,0.1-0.9,0.2-1.4,0.3s-1,0.2-1.5,0.3s-1,0.2-1.4,0.2
			c-0.9,0.1-1.7,0.3-2.4,0.7c-0.7,0.3-1.2,0.7-1.5,1.2s-0.5,1.1-0.5,1.8c0,0.7,0.2,1.2,0.5,1.7s0.8,0.8,1.4,1.1
			C233.4,38.1,234.1,38.2,234.8,38.2z"/>
		<path class="st0" d="M262,26.5V44h-9.6V13.3h9l0.2,7.7h-0.4c0.8-2.4,1.9-4.4,3.5-5.9c1.6-1.5,3.8-2.2,6.5-2.2c2.1,0,4,0.5,5.6,1.4
			c1.6,1,2.8,2.3,3.7,4c0.9,1.7,1.3,3.8,1.3,6.1V44h-9.6V26.3c0-1.7-0.4-3.1-1.3-4s-2.1-1.5-3.7-1.5c-1,0-1.9,0.2-2.7,0.7
			s-1.4,1.1-1.9,1.9C262.3,24.3,262,25.3,262,26.5z"/>
	</g>
</g>
<g>
	<g>
		<path class="st0" d="M78.3,57.1l-2.5-7.3h1.9l1,3.2c0.2,0.5,0.3,1.1,0.5,1.7c0.1,0.6,0.3,1.2,0.4,1.8h-0.4
			c0.1-0.6,0.3-1.3,0.4-1.8s0.3-1.1,0.4-1.7l1-3.2H83l-2.4,7.3H78.3z"/>
		<path class="st0" d="M84.4,57.1l2.4-7.3h2.3l2.5,7.3h-1.9l-1-3.2c-0.2-0.5-0.3-1.1-0.5-1.7c-0.2-0.6-0.3-1.2-0.5-1.9h0.4
			c-0.1,0.6-0.3,1.3-0.4,1.9s-0.3,1.2-0.4,1.7l-1,3.2H84.4z M86,55.6v-1.3H90v1.3H86z"/>
		<path class="st0" d="M94,57.1v-7.3h1.7v5.9h3v1.4H94z"/>
		<path class="st0" d="M103,49.9v7.3h-1.7v-7.3H103z"/>
		<path class="st0" d="M107.4,49.9v7.3h-1.7v-7.3H107.4z M108.3,57.1h-1.9v-1.5h1.9c0.4,0,0.8-0.1,1.1-0.2c0.3-0.1,0.5-0.4,0.7-0.7
			s0.2-0.7,0.2-1.3s-0.1-0.9-0.2-1.3s-0.4-0.5-0.7-0.7c-0.3-0.1-0.6-0.2-1.1-0.2h-1.9v-1.5h2c0.7,0,1.4,0.1,1.9,0.4s0.9,0.7,1.2,1.3
			s0.4,1.2,0.4,1.9s-0.1,1.4-0.4,2c-0.3,0.5-0.7,1-1.2,1.3C109.7,57,109.1,57.1,108.3,57.1z"/>
		<path class="st0" d="M113.8,57.1l2.4-7.3h2.3l2.5,7.3h-1.9l-1-3.2c-0.2-0.5-0.3-1.1-0.5-1.7c-0.2-0.6-0.3-1.2-0.5-1.9h0.4
			c-0.1,0.6-0.3,1.3-0.4,1.9s-0.3,1.2-0.4,1.7l-1,3.2H113.8z M115.4,55.6v-1.3h3.9v1.3H115.4z"/>
		<path class="st0" d="M122.3,51.3v-1.4h6.1v1.4h-2.2v5.9h-1.7v-5.9H122.3z"/>
		<path class="st0" d="M130.9,57.1v-7.3h5v1.4h-3.3v1.5h3.1v1.4h-3.1v1.6h3.3v1.4H130.9z"/>
		<path class="st0" d="M161.2,57.1v-7.3h2.7l0.9,2.8c0.1,0.2,0.1,0.4,0.2,0.7c0.1,0.3,0.1,0.6,0.2,0.9s0.1,0.6,0.2,0.9
			c0.1,0.3,0.1,0.6,0.1,0.8h-0.3c0-0.2,0.1-0.5,0.1-0.8c0.1-0.3,0.1-0.6,0.2-0.9c0.1-0.3,0.1-0.6,0.2-0.9c0.1-0.3,0.1-0.5,0.2-0.7
			l0.9-2.8h2.7v7.3h-1.7V54c0-0.2,0-0.4,0-0.6s0-0.5,0-0.8c0-0.3,0-0.6,0-0.9c0-0.3,0-0.6,0-0.9h0.1c-0.1,0.3-0.1,0.6-0.2,0.9
			c-0.1,0.3-0.2,0.6-0.2,0.9c-0.1,0.3-0.2,0.6-0.2,0.8c-0.1,0.2-0.1,0.4-0.2,0.6l-1,3.1h-1.4l-1-3.1c0-0.2-0.1-0.4-0.2-0.6
			s-0.1-0.5-0.2-0.8s-0.2-0.6-0.2-0.9s-0.1-0.6-0.2-0.9h0.1c0,0.3,0,0.5,0,0.8s0,0.6,0,0.9c0,0.3,0,0.6,0,0.8c0,0.3,0,0.5,0,0.6v3.1
			H161.2z"/>
		<path class="st0" d="M175.5,57.2c-0.7,0-1.2-0.1-1.8-0.4c-0.5-0.3-0.9-0.7-1.2-1.3s-0.5-1.2-0.5-2c0-0.8,0.2-1.5,0.5-2
			s0.7-1,1.2-1.3c0.5-0.3,1.1-0.4,1.8-0.4c0.7,0,1.2,0.1,1.8,0.4c0.5,0.3,0.9,0.7,1.2,1.3c0.3,0.6,0.5,1.2,0.5,2
			c0,0.8-0.2,1.5-0.5,2c-0.3,0.6-0.7,1-1.2,1.3C176.7,57.1,176.2,57.2,175.5,57.2z M175.5,55.7c0.4,0,0.7-0.1,0.9-0.3
			s0.4-0.4,0.6-0.7s0.2-0.7,0.2-1.2c0-0.5-0.1-0.9-0.2-1.2s-0.3-0.6-0.6-0.8s-0.6-0.3-0.9-0.3c-0.4,0-0.7,0.1-0.9,0.3
			s-0.4,0.4-0.6,0.8s-0.2,0.7-0.2,1.2c0,0.5,0.1,0.9,0.2,1.2s0.3,0.6,0.6,0.7S175.1,55.7,175.5,55.7z"/>
		<path class="st0" d="M181.5,57.1v-7.3h1.9l2,3.3c0.1,0.2,0.3,0.4,0.4,0.7c0.1,0.2,0.3,0.5,0.4,0.8s0.2,0.6,0.4,1h-0.2
			c0-0.3,0-0.6-0.1-0.9c0-0.3,0-0.6-0.1-0.9s0-0.6,0-0.8v-3.1h1.8v7.3h-1.9l-1.9-3c-0.2-0.3-0.3-0.5-0.5-0.8
			c-0.1-0.2-0.3-0.5-0.4-0.8c-0.1-0.3-0.3-0.6-0.5-1h0.2c0,0.3,0,0.7,0.1,1c0,0.3,0,0.6,0.1,0.9s0,0.5,0,0.7v3H181.5z"/>
		<path class="st0" d="M192.5,49.9v7.3h-1.7v-7.3H192.5z"/>
		<path class="st0" d="M194.9,51.3v-1.4h6.1v1.4h-2.2v5.9h-1.7v-5.9H194.9z"/>
		<path class="st0" d="M206.5,57.2c-0.7,0-1.2-0.1-1.8-0.4c-0.5-0.3-0.9-0.7-1.2-1.3s-0.5-1.2-0.5-2c0-0.8,0.2-1.5,0.5-2
			s0.7-1,1.2-1.3c0.5-0.3,1.1-0.4,1.8-0.4c0.7,0,1.2,0.1,1.8,0.4c0.5,0.3,0.9,0.7,1.2,1.3c0.3,0.6,0.5,1.2,0.5,2
			c0,0.8-0.2,1.5-0.5,2c-0.3,0.6-0.7,1-1.2,1.3C207.8,57.1,207.2,57.2,206.5,57.2z M206.5,55.7c0.4,0,0.7-0.1,0.9-0.3
			s0.4-0.4,0.6-0.7s0.2-0.7,0.2-1.2c0-0.5-0.1-0.9-0.2-1.2s-0.3-0.6-0.6-0.8s-0.6-0.3-0.9-0.3c-0.4,0-0.7,0.1-0.9,0.3
			s-0.4,0.4-0.6,0.8s-0.2,0.7-0.2,1.2c0,0.5,0.1,0.9,0.2,1.2s0.3,0.6,0.6,0.7S206.2,55.7,206.5,55.7z"/>
		<path class="st0" d="M212.5,57.1v-7.3h3c0.5,0,1,0.1,1.4,0.3s0.7,0.5,0.9,0.8c0.2,0.4,0.3,0.8,0.3,1.3c0,0.5-0.1,0.9-0.3,1.3
			s-0.5,0.6-0.9,0.8s-0.9,0.3-1.4,0.3h-1.9v-1.4h1.6c0.3,0,0.5,0,0.7-0.1c0.2-0.1,0.3-0.2,0.4-0.3c0.1-0.1,0.1-0.3,0.1-0.6
			c0-0.2,0-0.4-0.1-0.6c-0.1-0.1-0.2-0.3-0.4-0.3s-0.4-0.1-0.7-0.1h-0.9v5.9H212.5z M216.5,57.1l-1.8-3.3h1.8l1.8,3.3H216.5z"/>
		<path class="st0" d="M243.1,51.3v-1.4h6.1v1.4H247v5.9h-1.7v-5.9H243.1z"/>
		<path class="st0" d="M251.7,57.1v-7.3h3c0.5,0,1,0.1,1.4,0.3c0.4,0.2,0.7,0.5,0.9,0.8c0.2,0.4,0.3,0.8,0.3,1.3
			c0,0.5-0.1,0.9-0.3,1.3s-0.5,0.6-0.9,0.8c-0.4,0.2-0.9,0.3-1.4,0.3h-1.9v-1.4h1.6c0.3,0,0.5,0,0.7-0.1c0.2-0.1,0.3-0.2,0.4-0.3
			c0.1-0.1,0.1-0.3,0.1-0.6c0-0.2,0-0.4-0.1-0.6c-0.1-0.1-0.2-0.3-0.4-0.3s-0.4-0.1-0.7-0.1h-0.9v5.9H251.7z M255.7,57.1l-1.8-3.3
			h1.8l1.8,3.3H255.7z"/>
		<path class="st0" d="M263,57.2c-0.6,0-1.1-0.1-1.6-0.3c-0.5-0.2-0.8-0.5-1.1-0.9c-0.3-0.4-0.4-0.9-0.4-1.4v-4.7h1.7v4.6
			c0,0.3,0.1,0.5,0.2,0.7s0.3,0.4,0.5,0.5c0.2,0.1,0.4,0.2,0.7,0.2s0.5-0.1,0.7-0.2c0.2-0.1,0.4-0.3,0.5-0.5
			c0.1-0.2,0.2-0.4,0.2-0.7v-4.6h1.7v4.7c0,0.5-0.1,1-0.4,1.4s-0.6,0.7-1.1,0.9C264.1,57.1,263.6,57.2,263,57.2z"/>
		<path class="st0" d="M271.6,57.2c-0.6,0-1.1-0.1-1.6-0.3s-0.8-0.5-1-0.8s-0.4-0.8-0.4-1.4h1.7c0,0.2,0.1,0.4,0.2,0.6
			c0.1,0.2,0.3,0.3,0.5,0.4c0.2,0.1,0.4,0.1,0.7,0.1c0.2,0,0.4,0,0.6-0.1s0.3-0.2,0.4-0.3c0.1-0.1,0.1-0.3,0.1-0.4
			c0-0.1,0-0.3-0.1-0.4c-0.1-0.1-0.2-0.2-0.4-0.3s-0.4-0.1-0.7-0.2l-0.8-0.2c-0.6-0.1-1.1-0.4-1.5-0.7s-0.5-0.8-0.5-1.3
			c0-0.4,0.1-0.8,0.4-1.2s0.6-0.6,1-0.8c0.4-0.2,0.9-0.3,1.5-0.3c0.6,0,1.1,0.1,1.5,0.3s0.7,0.5,1,0.8s0.3,0.7,0.4,1.2h-1.7
			c0-0.3-0.1-0.5-0.3-0.6s-0.5-0.2-0.8-0.2c-0.2,0-0.4,0-0.6,0.1s-0.3,0.1-0.4,0.2s-0.1,0.2-0.1,0.4c0,0.1,0,0.3,0.1,0.4
			s0.2,0.2,0.4,0.3s0.4,0.1,0.6,0.2l0.6,0.1c0.4,0.1,0.7,0.2,0.9,0.3c0.3,0.1,0.5,0.3,0.7,0.5c0.2,0.2,0.3,0.4,0.4,0.6
			c0.1,0.2,0.1,0.5,0.1,0.8c0,0.5-0.1,0.9-0.3,1.2c-0.2,0.3-0.6,0.6-1,0.8C272.7,57.2,272.2,57.2,271.6,57.2z"/>
		<path class="st0" d="M276.6,51.3v-1.4h6.1v1.4h-2.2v5.9h-1.7v-5.9H276.6z"/>
	</g>
</g>
<g>
	<path class="st1" d="M151.6,53l-3.8,3.8v-7.5L151.6,53z"/>
</g>
<g>
	<path class="st1" d="M233.3,53l-3.8,3.8v-7.5L233.3,53z"/>
</g>
<g>
	<polygon class="st2" points="42.2,27.2 45.9,25.8 45.9,25.8 42.2,27.2 	"/>
	<polygon class="st3" points="42.2,27.2 42.2,27.2 40.4,27.9 	"/>
	<linearGradient id="SVGID_1_" gradientUnits="userSpaceOnUse" x1="25.1365" y1="30.052" x2="34.4927" y2="30.052">
		<stop  offset="0" style="stop-color:#7453A1"/>
		<stop  offset="0.3883" style="stop-color:#984699"/>
	</linearGradient>
	<circle class="st4" cx="29.8" cy="30.1" r="4.7"/>
	<g>
		<path class="st5" d="M50.9,17c-0.1-0.2-0.2-0.4-0.4-0.6C50.6,16.7,50.8,16.9,50.9,17z"/>
		<path class="st5" d="M51.3,17.7c0,0,0-0.1-0.1-0.1C51.2,17.6,51.2,17.6,51.3,17.7z"/>
		<linearGradient id="SVGID_2_" gradientUnits="userSpaceOnUse" x1="29.5517" y1="59.3203" x2="29.5517" y2="2.1447">
			<stop  offset="0" style="stop-color:#6E54A2"/>
			<stop  offset="0.5161" style="stop-color:#BA3D95"/>
			<stop  offset="0.5835" style="stop-color:#C33991"/>
			<stop  offset="0.8496" style="stop-color:#E12B85"/>
			<stop  offset="1" style="stop-color:#EC2680"/>
		</linearGradient>
		<path class="st6" d="M49.9,15.6l-3.8,1.7c0,0,0,0,0-0.1c-3.8-4.9-9.8-8-16.5-8c-11.6,0-21,9.4-21,21c0,11.6,9.4,21,21,21
			s21-9.4,21-21c0-2-0.3-4-0.8-5.8l-3.8,1.5c0,0,0,0,0,0l-3.7,1.4l-1.8,0.7l0,0l-2.1,0.8c0.1,0.5,0.1,0.9,0.1,1.4
			c0,4.9-4,8.9-8.9,8.9s-8.9-4-8.9-8.9s4-8.9,8.9-8.9c3,0,5.6,1.5,7.2,3.7l3.9-1.5c-2.3-3.8-6.4-6.3-11.2-6.3c-7.2,0-13,5.8-13,13
			c0,7.2,5.8,13,13,13c6.7,0,12.3-5.1,12.9-11.7l3.9-1.6c0,9.5-7.7,17.1-17.1,17.1c-9.5,0-17.1-7.7-17.1-17.1s7.7-17.1,17.1-17.1
			c6.6,0,12.4,3.8,15.2,9.2l3.7-1.5 M48.2,20.5L52,19c0,0,0,0,0,0l3.8-1.5C51.3,7.7,41.6,1.3,29.6,1.3C12.9,1.3,0.7,13.6,0.7,30.2
			C0.7,46.8,12.9,59,29.6,59s28.8-12.2,28.8-28.8c0-3.1-0.4-6-1.2-8.8l-3.7,1.4c0.7,2.3,1.1,4.8,1.1,7.3c0,13.8-11.2,25-25,25
			c-13.8,0-25-11.2-25-25c0-13.8,11.2-25,25-25c8.4,0,15.8,4.1,20.3,10.4"/>
	</g>
	<polygon class="st3" points="40.4,27.9 40.4,27.9 40.4,27.9 	"/>
</g>
</svg>
